# xmcd
#
# Track frame offsets: 
#        150
#        11787
#        27145
#        38857
#        51222
#        64077
#        79400
#        95472
#        108452
#        118527
#        132677
#
# Disc length: 1812 seconds
#
# Revision: 0
# Processed by: cddbd v1.5.1PL2 Copyright (c) Steve Scherf et al.
# Submitted via: ExactAudioCopy v0.95b2
#
DISCID=9607120b
DTITLE=Kico Slabinac - Bozic s Kicom
DYEAR=1900
DGENRE=
TTITLE0=U to vrijeme godista
TTITLE1=Svim na zemlji
TTITLE2=O, pastir, cudo novo
TTITLE3=Veselje ti navjescujem
TTITLE4=Djetesce nam se rodilo
TTITLE5=Narodi nam se
TTITLE6=Radujte se, narodi
TTITLE7=Svijetla noci
TTITLE8=Zvoncici
TTITLE9=Tiha noc
TTITLE10=We wish you a merry Christmas
EXTD=
EXTT0=
EXTT1=
EXTT2=
EXTT3=
EXTT4=
EXTT5=
EXTT6=
EXTT7=
EXTT8=
EXTT9=
EXTT10=
PLAYORDER=
